<?xml version="1.0" standalone="no"?>
<!DOCTYPE svg PUBLIC "-//W3C//DTD SVG 20010904//EN"
 "http://www.w3.org/TR/2001/REC-SVG-20010904/DTD/svg10.dtd">
<svg version="1.0" xmlns="http://www.w3.org/2000/svg"
 width="500.000000pt" height="500.000000pt" viewBox="0 0 500.000000 500.000000"
 preserveAspectRatio="xMidYMid meet">

<g transform="translate(0.000000,500.000000) scale(0.100000,-0.100000)"
fill="#000000" stroke="none">
<path d="M0 4542 l0 -459 197 -6 c280 -10 649 -8 783 3 341 28 658 22 845 -16
324 -67 547 -231 627 -463 20 -57 23 -85 23 -216 -1 -170 -19 -260 -80 -392
-90 -195 -271 -391 -460 -498 -27 -16 -52 -30 -54 -31 -2 -2 50 -81 115 -176
431 -634 710 -995 950 -1228 144 -140 218 -197 327 -255 102 -53 168 -75 255
-83 67 -7 67 -7 70 -39 l3 -33 -501 0 c-399 0 -507 3 -533 14 -178 75 -624
677 -1146 1549 l-52 87 -199 0 c-109 0 -206 3 -215 6 -15 6 -16 -49 -13 -697
4 -785 2 -766 74 -828 43 -38 94 -52 219 -60 l100 -6 3 -34 3 -34 -370 7
c-203 4 -505 4 -670 0 l-301 -7 0 -324 0 -323 2500 0 2500 0 -1 1573 0 1572
-25 -88 c-99 -362 -341 -667 -675 -849 -106 -59 -295 -124 -424 -147 -162 -29
-255 -31 -589 -15 -242 12 -423 15 -673 10 l-343 -6 0 24 c0 22 4 23 95 29
137 9 175 29 212 112 17 38 18 110 21 1165 2 771 -1 1145 -8 1188 -11 67 -35
115 -68 138 -30 21 -129 44 -189 44 -50 0 -53 1 -53 26 l0 26 108 -8 c59 -4
258 -6 442 -4 853 8 925 7 1050 -19 552 -114 949 -446 1090 -912 l29 -94 0
618 1 617 -2500 0 -2500 0 0 -458z"/>
<path d="M3360 4704 c-187 -28 -246 -71 -270 -199 -8 -43 -10 -358 -8 -1105 3
-968 5 -1048 21 -1090 23 -61 87 -125 143 -144 125 -43 379 -46 528 -7 293 77
510 294 630 629 97 272 114 696 40 1025 -107 482 -352 788 -703 878 -57 15
-106 19 -215 18 -78 -1 -152 -3 -166 -5z"/>
<path d="M0 2365 l0 -1648 68 6 c161 15 217 64 242 208 8 45 10 488 8 1479 -3
1331 -4 1418 -21 1460 -10 24 -27 54 -38 66 -32 34 -114 65 -190 71 l-69 6 0
-1648z"/>
<path d="M1184 3965 c-116 -25 -180 -74 -217 -164 -22 -56 -22 -59 -25 -698
l-3 -641 68 -9 c124 -15 381 -9 453 11 195 53 304 174 361 399 17 65 22 125
26 288 6 210 -3 321 -34 449 -50 205 -170 331 -351 369 -70 15 -202 13 -278
-4z"/>
</g>
</svg>
