<?xml version="1.0" standalone="no"?>
<!DOCTYPE svg PUBLIC "-//W3C//DTD SVG 20010904//EN"
 "http://www.w3.org/TR/2001/REC-SVG-20010904/DTD/svg10.dtd">
<svg version="1.0" xmlns="http://www.w3.org/2000/svg"
 width="512.000000pt" height="487.000000pt" viewBox="0 0 512.000000 487.000000"
 preserveAspectRatio="xMidYMid meet">

<g transform="translate(0.000000,487.000000) scale(0.100000,-0.100000)"
fill="#000000" stroke="none">
<path d="M2365 4832 c-6 -5 -37 -19 -69 -32 -40 -16 -79 -43 -119 -82 -34 -32
-66 -58 -71 -58 -16 0 -84 -131 -90 -171 -2 -19 -18 -77 -36 -129 -31 -92 -32
-99 -27 -231 3 -99 8 -142 20 -160 12 -19 13 -34 6 -74 -6 -27 -13 -64 -16
-82 -3 -19 -12 -33 -24 -36 -24 -6 -24 -26 2 -56 23 -29 32 -23 34 23 0 20 8
43 17 53 9 11 16 38 16 70 0 28 5 69 11 90 6 21 17 90 26 153 8 63 21 136 29
161 19 61 104 175 120 159 8 -8 7 -13 -4 -21 -12 -7 -9 -9 10 -7 14 1 98 -1
187 -5 110 -6 168 -5 181 2 31 16 192 22 229 9 26 -9 38 -9 58 2 35 19 45 3
45 -72 0 -74 -17 -87 -120 -88 -97 -2 -107 -5 -126 -42 -21 -40 -24 -175 -5
-210 14 -28 75 -64 106 -63 11 0 26 -6 34 -13 18 -18 111 -8 127 13 6 8 26 15
44 15 31 0 32 1 26 32 -7 33 -48 103 -75 125 -28 24 -4 23 31 -1 56 -37 74
-41 82 -14 15 58 16 56 -107 149 -26 19 -27 23 -13 38 9 10 16 22 16 28 0 6 7
24 15 39 8 16 15 40 15 53 l0 24 25 -23 c14 -13 25 -28 25 -33 0 -5 6 -23 14
-40 26 -57 36 -111 36 -196 0 -47 5 -136 11 -198 11 -100 10 -121 -6 -181 -26
-98 -65 -191 -92 -220 -12 -14 -23 -28 -23 -32 0 -4 -7 -7 -16 -6 -10 0 -21
-11 -28 -30 -6 -18 -23 -46 -37 -63 l-26 -32 -7 32 c-3 18 -2 37 2 43 9 12 9
67 0 82 -3 5 -9 23 -12 41 -6 24 -16 35 -44 46 -36 14 -38 17 -34 55 4 40 3
41 -32 47 -39 8 -71 0 -62 -14 6 -9 -16 -21 -40 -21 -8 0 -23 9 -34 20 -38 38
-136 17 -112 -25 8 -15 5 -22 -13 -37 -13 -10 -38 -21 -57 -25 -58 -11 -95
-40 -102 -79 -4 -19 -5 -38 -2 -42 9 -14 -21 -116 -37 -126 -20 -13 -48 17
-45 49 1 11 -3 30 -10 42 -7 12 -12 26 -12 32 0 10 -46 60 -55 61 -3 0 -9 0
-15 0 -5 0 -10 9 -10 20 0 10 -13 40 -29 64 -15 25 -34 67 -41 93 -7 27 -17
53 -23 58 -6 6 -7 3 -3 -10 5 -19 20 -109 30 -185 12 -92 31 -162 62 -240 28
-67 46 -96 88 -136 29 -28 59 -65 67 -83 8 -17 17 -31 20 -31 4 0 24 -16 45
-35 21 -19 46 -35 57 -35 10 0 33 -6 50 -14 42 -19 102 -27 114 -15 5 5 26 0
52 -13 42 -21 43 -21 36 -62 -3 -23 -7 -58 -8 -78 0 -21 -5 -38 -10 -38 -4 0
-13 -13 -18 -30 -6 -16 -15 -30 -20 -30 -5 0 -9 -6 -9 -14 0 -8 -11 -27 -23
-42 l-24 -27 -34 20 c-19 12 -51 21 -72 21 -28 0 -43 6 -58 24 -11 12 -29 34
-41 47 -11 13 -29 39 -40 57 -11 19 -22 34 -24 34 -7 0 17 -55 59 -134 38 -71
47 -81 97 -106 57 -29 100 -64 100 -80 0 -5 7 -7 15 -4 8 4 12 10 9 15 -4 8 6
10 31 9 13 -1 158 127 246 217 140 142 169 184 169 242 0 45 -21 91 -40 91 -5
0 -13 -12 -17 -27 l-6 -28 -8 27 c-10 39 16 144 51 198 31 49 55 125 65 205
10 73 15 87 31 81 8 -3 14 -1 14 3 0 5 -6 11 -12 14 -19 7 4 40 32 47 31 7 76
88 54 97 -7 3 -14 15 -14 28 0 12 -7 28 -15 35 -21 17 -19 82 3 122 15 26 20
65 26 188 3 85 9 181 12 213 4 40 2 57 -6 57 -6 0 -8 4 -5 10 3 5 -1 35 -9 67
-8 32 -17 79 -21 106 -6 42 -12 51 -52 80 -25 17 -66 51 -92 74 -44 39 -110
76 -96 53 3 -6 -3 -10 -14 -10 -12 0 -21 5 -21 11 0 22 -26 37 -46 26 -10 -6
-21 -13 -24 -16 -3 -4 -16 -12 -30 -19 l-25 -11 28 5 c15 4 27 2 27 -4 0 -6 9
-8 20 -5 12 3 29 -2 39 -11 14 -13 20 -14 23 -5 6 17 68 -20 68 -40 0 -12 3
-12 12 -3 18 18 28 15 28 -9 0 -11 5 -17 10 -14 6 3 10 -1 10 -9 0 -12 -10
-16 -36 -16 -30 0 -37 4 -45 30 -11 31 -29 41 -29 16 0 -22 -23 -25 -45 -5
-11 10 -31 20 -45 23 -58 12 -85 24 -84 37 1 9 -9 16 -23 17 -14 1 -37 10 -51
20 -15 10 -45 19 -67 21 -22 1 -42 5 -45 9 -5 7 -29 13 -67 15 -13 1 -23 5
-23 10 0 10 -34 9 -45 -1z m15 -22 c0 -5 -5 -10 -11 -10 -5 0 -7 5 -4 10 3 6
8 10 11 10 2 0 4 -4 4 -10z m-55 -20 c-3 -5 -12 -10 -18 -10 -7 0 -6 4 3 10
19 12 23 12 15 0z m700 -212 c4 -15 2 -29 -4 -32 -7 -5 -11 3 -11 19 0 15 -4
24 -10 20 -12 -7 -30 34 -23 52 7 17 39 -24 48 -59z m35 -38 c0 -5 -4 -10 -10
-10 -5 0 -10 5 -10 10 0 6 5 10 10 10 6 0 10 -4 10 -10z m-100 -19 c0 -6 -4
-13 -10 -16 -5 -3 -10 1 -10 9 0 9 5 16 10 16 6 0 10 -4 10 -9z m-37 -111 c3
-11 1 -23 -4 -26 -5 -3 -9 6 -9 20 0 31 6 34 13 6z m171 -56 c9 -3 13 -10 10
-15 -8 -14 -21 -11 -28 6 -6 17 -4 18 18 9z m-218 -350 c-25 -18 -31 -12 -16
16 9 17 15 19 23 10 9 -9 7 -15 -7 -26z m191 -306 c-3 -8 -6 -5 -6 6 -1 11 2
17 5 13 3 -3 4 -12 1 -19z m-577 -108 c0 -5 -5 -10 -11 -10 -5 0 -7 -4 -4 -10
4 -6 -1 -7 -12 -3 -10 3 -15 2 -10 -2 7 -8 -52 -39 -60 -31 -2 2 13 18 34 35
38 31 63 40 63 21z m-363 -122 c-3 -8 -6 -5 -6 6 -1 11 2 17 5 13 3 -3 4 -12
1 -19z m386 -100 c10 -5 38 -6 62 -2 37 5 46 3 51 -11 4 -9 2 -21 -5 -28 -8
-8 -11 -6 -11 7 0 13 -5 16 -22 10 -13 -4 -26 -11 -29 -16 -4 -6 -9 -6 -13 1
-5 7 -19 5 -46 -9 -48 -25 -61 -25 -53 -2 6 16 5 16 -13 1 -27 -22 -81 -42
-93 -35 -14 9 28 94 48 99 23 6 103 -4 124 -15z m222 -10 c-2 -10 1 -17 7 -15
6 1 12 -8 14 -20 5 -32 -24 -30 -32 2 -7 29 -21 33 -27 8 -2 -10 -4 -4 -4 13
0 27 4 31 22 30 16 -1 22 -6 20 -18z"/>
<path d="M2660 4819 c0 -5 11 -9 25 -9 14 0 25 2 25 4 0 2 -11 6 -25 8 -14 3
-25 1 -25 -3z"/>
<path d="M2278 4264 c-3 -2 -19 -5 -36 -6 -39 -4 -131 -66 -112 -78 7 -4 10
-12 6 -18 -3 -5 1 -15 8 -22 11 -9 20 -8 38 3 31 20 81 28 98 16 13 -7 12 -9
-2 -9 -24 0 -118 -80 -118 -101 0 -4 -3 -14 -6 -23 -5 -13 1 -16 29 -16 54 0
69 -8 56 -31 -9 -17 -6 -19 33 -20 24 -1 58 -2 76 -4 17 -1 32 1 32 5 0 5 9 6
20 3 12 -3 36 5 60 21 46 30 58 63 54 150 -4 95 -56 133 -180 134 -29 1 -54
-1 -56 -4z m-15 -213 c3 -14 1 -18 -9 -14 -15 6 -18 16 -7 26 9 10 10 9 16
-12z"/>
<path d="M1884 3895 c4 -24 16 -30 16 -7 0 12 -4 22 -9 22 -5 0 -8 -7 -7 -15z"/>
<path d="M3100 3831 c0 -6 5 -13 10 -16 6 -3 10 1 10 9 0 9 -4 16 -10 16 -5 0
-10 -4 -10 -9z"/>
<path d="M2720 3827 c0 -5 9 -20 20 -34 11 -14 20 -21 20 -15 0 12 -39 60 -40
49z"/>
<path d="M3191 3804 c0 -11 3 -14 6 -6 3 7 2 16 -1 19 -3 4 -6 -2 -5 -13z"/>
<path d="M3106 3605 c-11 -8 -15 -15 -9 -15 6 0 16 7 23 15 16 19 11 19 -14 0z"/>
<path d="M2998 3123 c-16 -4 -16 -7 -4 -31 8 -15 21 -54 31 -87 l16 -60 -30
-95 c-16 -52 -44 -146 -61 -208 -16 -62 -46 -152 -66 -200 -19 -48 -49 -123
-65 -167 -62 -165 -345 -715 -393 -763 -11 -11 -20 -1 -53 55 -99 168 -184
352 -224 482 -20 67 -21 87 -15 204 3 71 9 148 13 170 4 29 3 38 -5 33 -9 -5
-10 5 -6 36 3 24 6 154 7 289 l2 247 -40 -35 c-22 -20 -47 -44 -55 -54 -13
-15 -551 -219 -578 -219 -5 0 -42 -15 -83 -34 -41 -18 -99 -45 -129 -59 -60
-27 -80 -54 -80 -109 0 -16 -6 -56 -14 -87 -27 -102 -52 -344 -67 -641 -16
-303 -26 -415 -49 -545 -15 -82 -23 -172 -25 -285 -2 -91 -8 -183 -14 -205 -6
-22 -11 -96 -11 -164 0 -110 -3 -133 -27 -200 -26 -70 -28 -88 -28 -233 l0
-158 1269 0 1268 0 -6 28 c-3 15 -11 116 -18 225 -9 155 -9 228 0 332 12 135
18 165 32 165 8 0 20 -158 20 -285 0 -49 5 -110 11 -134 7 -30 7 -60 0 -92 -6
-26 -14 -91 -17 -143 l-7 -96 296 0 296 0 -2 23 c-1 12 2 141 6 287 6 187 6
294 -3 365 -9 83 -9 116 4 195 9 56 16 157 16 245 0 83 7 231 15 330 10 123
15 321 15 625 0 387 -2 448 -16 468 -8 12 -21 22 -27 22 -7 0 -48 17 -92 39
-44 21 -91 42 -105 46 -14 4 -54 20 -90 35 -180 78 -491 190 -527 190 -23 0
-138 116 -180 181 -30 46 -73 85 -86 78 -1 -1 -10 -3 -19 -6z m-36 -1035 c-6
-6 -15 -8 -19 -4 -4 4 -1 11 7 16 19 12 27 3 12 -12z m11 -25 c-4 -11 -3 -14
5 -9 8 5 12 -1 12 -15 0 -18 5 -21 30 -17 17 3 30 1 30 -3 0 -4 3 -14 6 -23 5
-12 0 -16 -19 -16 -14 0 -30 -8 -35 -17 -8 -14 -11 -11 -16 14 -4 17 -13 34
-21 37 -16 6 -16 47 0 58 14 11 15 10 8 -9z m131 -34 c-9 -10 -24 -18 -33 -18
-13 1 -13 2 2 6 16 4 19 8 21 36 2 19 21 28 24 11 2 -9 -4 -24 -14 -35z m190
-5 c5 -14 9 -13 35 2 26 15 32 16 47 3 9 -8 25 -13 34 -11 12 2 33 -22 69 -79
46 -72 52 -86 49 -128 -3 -40 -6 -46 -28 -50 -33 -5 -391 20 -407 28 -9 5 -1
32 29 96 50 110 53 113 103 136 50 22 61 23 69 3z m-307 -116 c-3 -8 -6 -5 -6
6 -1 11 2 17 5 13 3 -3 4 -12 1 -19z m253 -283 c0 -8 -4 -15 -10 -15 -5 0 -10
7 -10 15 0 8 5 15 10 15 6 0 10 -7 10 -15z m-980 -1209 c0 -8 -4 -18 -10 -21
-5 -3 -10 -4 -10 -1 0 2 -3 11 -6 20 -4 11 -1 16 10 16 9 0 16 -6 16 -14z m50
-20 c0 -2 -13 -20 -30 -41 -16 -21 -30 -44 -30 -51 0 -8 -4 -14 -10 -14 -20 0
-9 40 21 75 27 30 49 44 49 31z m80 -16 c0 -5 -2 -10 -4 -10 -3 0 -8 5 -11 10
-3 6 -1 10 4 10 6 0 11 -4 11 -10z"/>
</g>
</svg>
